<mxfile host="app.diagrams.net" modified="2023-11-07T06:16:31.779Z" agent="Mozilla/5.0 (X11; CrOS x86_64 14541.0.0) AppleWebKit/537.36 (KHTML, like Gecko) Chrome/118.0.0.0 Safari/537.36" etag="29zr7rL6BvOrqAvrX2d5" version="22.0.8" type="github">
  <diagram name="Page-1" id="W_DVIdqr6u6kEkCFuuBQ">
    <mxGraphModel dx="880" dy="487" grid="1" gridSize="10" guides="1" tooltips="1" connect="1" arrows="1" fold="1" page="1" pageScale="1" pageWidth="850" pageHeight="1100" math="0" shadow="0">
      <root>
        <mxCell id="0" />
        <mxCell id="1" parent="0" />
        <mxCell id="krpuxbvZtWhmsAZp7eO3-10" value="" style="edgeStyle=orthogonalEdgeStyle;rounded=0;orthogonalLoop=1;jettySize=auto;html=1;" edge="1" parent="1" source="krpuxbvZtWhmsAZp7eO3-1" target="krpuxbvZtWhmsAZp7eO3-5">
          <mxGeometry relative="1" as="geometry" />
        </mxCell>
        <mxCell id="krpuxbvZtWhmsAZp7eO3-1" value="Start" style="strokeWidth=2;html=1;shape=mxgraph.flowchart.start_1;whiteSpace=wrap;" vertex="1" parent="1">
          <mxGeometry x="350" y="20" width="100" height="60" as="geometry" />
        </mxCell>
        <mxCell id="krpuxbvZtWhmsAZp7eO3-3" value="Function&lt;br&gt;int&amp;nbsp;_printf(const char *format, ...)" style="strokeWidth=2;html=1;shape=mxgraph.flowchart.annotation_2;align=left;labelPosition=right;pointerEvents=1;direction=east;" vertex="1" parent="1">
          <mxGeometry x="460" y="25" width="100" height="65" as="geometry" />
        </mxCell>
        <mxCell id="krpuxbvZtWhmsAZp7eO3-12" value="" style="edgeStyle=orthogonalEdgeStyle;rounded=0;orthogonalLoop=1;jettySize=auto;html=1;" edge="1" parent="1" source="krpuxbvZtWhmsAZp7eO3-5" target="krpuxbvZtWhmsAZp7eO3-11">
          <mxGeometry relative="1" as="geometry" />
        </mxCell>
        <mxCell id="krpuxbvZtWhmsAZp7eO3-5" value="Input: Format" style="shape=parallelogram;html=1;strokeWidth=2;perimeter=parallelogramPerimeter;whiteSpace=wrap;rounded=1;arcSize=12;size=0.23;" vertex="1" parent="1">
          <mxGeometry x="340" y="130" width="120" height="60" as="geometry" />
        </mxCell>
        <mxCell id="krpuxbvZtWhmsAZp7eO3-14" value="" style="edgeStyle=orthogonalEdgeStyle;rounded=0;orthogonalLoop=1;jettySize=auto;html=1;" edge="1" parent="1" source="krpuxbvZtWhmsAZp7eO3-11" target="krpuxbvZtWhmsAZp7eO3-13">
          <mxGeometry relative="1" as="geometry" />
        </mxCell>
        <mxCell id="krpuxbvZtWhmsAZp7eO3-11" value="Declare Variables" style="rounded=0;whiteSpace=wrap;html=1;" vertex="1" parent="1">
          <mxGeometry x="340" y="240" width="120" height="50" as="geometry" />
        </mxCell>
        <mxCell id="krpuxbvZtWhmsAZp7eO3-16" value="" style="edgeStyle=orthogonalEdgeStyle;rounded=0;orthogonalLoop=1;jettySize=auto;html=1;" edge="1" parent="1" source="krpuxbvZtWhmsAZp7eO3-13" target="krpuxbvZtWhmsAZp7eO3-15">
          <mxGeometry relative="1" as="geometry" />
        </mxCell>
        <mxCell id="krpuxbvZtWhmsAZp7eO3-23" value="" style="edgeStyle=orthogonalEdgeStyle;rounded=0;orthogonalLoop=1;jettySize=auto;html=1;" edge="1" parent="1" source="krpuxbvZtWhmsAZp7eO3-13" target="krpuxbvZtWhmsAZp7eO3-21">
          <mxGeometry relative="1" as="geometry" />
        </mxCell>
        <mxCell id="krpuxbvZtWhmsAZp7eO3-13" value="Is input &lt;br&gt;null?" style="strokeWidth=2;html=1;shape=mxgraph.flowchart.decision;whiteSpace=wrap;" vertex="1" parent="1">
          <mxGeometry x="350" y="330" width="100" height="100" as="geometry" />
        </mxCell>
        <mxCell id="krpuxbvZtWhmsAZp7eO3-17" value="" style="edgeStyle=orthogonalEdgeStyle;rounded=0;orthogonalLoop=1;jettySize=auto;html=1;" edge="1" parent="1" source="krpuxbvZtWhmsAZp7eO3-15" target="krpuxbvZtWhmsAZp7eO3-13">
          <mxGeometry relative="1" as="geometry" />
        </mxCell>
        <mxCell id="krpuxbvZtWhmsAZp7eO3-20" value="" style="edgeStyle=orthogonalEdgeStyle;rounded=0;orthogonalLoop=1;jettySize=auto;html=1;" edge="1" parent="1" source="krpuxbvZtWhmsAZp7eO3-15" target="krpuxbvZtWhmsAZp7eO3-19">
          <mxGeometry relative="1" as="geometry" />
        </mxCell>
        <mxCell id="krpuxbvZtWhmsAZp7eO3-15" value="Return Count" style="rounded=0;whiteSpace=wrap;html=1;" vertex="1" parent="1">
          <mxGeometry x="520" y="350" width="120" height="60" as="geometry" />
        </mxCell>
        <mxCell id="krpuxbvZtWhmsAZp7eO3-18" value="Yes" style="text;html=1;align=center;verticalAlign=middle;resizable=0;points=[];autosize=1;strokeColor=none;fillColor=none;" vertex="1" parent="1">
          <mxGeometry x="460" y="358" width="40" height="30" as="geometry" />
        </mxCell>
        <mxCell id="krpuxbvZtWhmsAZp7eO3-19" value="End" style="ellipse;whiteSpace=wrap;html=1;" vertex="1" parent="1">
          <mxGeometry x="690" y="400" width="120" height="80" as="geometry" />
        </mxCell>
        <mxCell id="krpuxbvZtWhmsAZp7eO3-26" value="" style="edgeStyle=orthogonalEdgeStyle;rounded=0;orthogonalLoop=1;jettySize=auto;html=1;" edge="1" parent="1" source="krpuxbvZtWhmsAZp7eO3-21" target="krpuxbvZtWhmsAZp7eO3-25">
          <mxGeometry relative="1" as="geometry" />
        </mxCell>
        <mxCell id="krpuxbvZtWhmsAZp7eO3-21" value="Iterate through string" style="rounded=0;whiteSpace=wrap;html=1;" vertex="1" parent="1">
          <mxGeometry x="340" y="470" width="120" height="60" as="geometry" />
        </mxCell>
        <mxCell id="krpuxbvZtWhmsAZp7eO3-24" value="No" style="text;html=1;align=center;verticalAlign=middle;resizable=0;points=[];autosize=1;strokeColor=none;fillColor=none;" vertex="1" parent="1">
          <mxGeometry x="360" y="425" width="40" height="30" as="geometry" />
        </mxCell>
        <mxCell id="krpuxbvZtWhmsAZp7eO3-28" value="" style="edgeStyle=orthogonalEdgeStyle;rounded=0;orthogonalLoop=1;jettySize=auto;html=1;" edge="1" parent="1" source="krpuxbvZtWhmsAZp7eO3-25" target="krpuxbvZtWhmsAZp7eO3-27">
          <mxGeometry relative="1" as="geometry" />
        </mxCell>
        <mxCell id="krpuxbvZtWhmsAZp7eO3-32" value="" style="edgeStyle=orthogonalEdgeStyle;rounded=0;orthogonalLoop=1;jettySize=auto;html=1;" edge="1" parent="1" source="krpuxbvZtWhmsAZp7eO3-25" target="krpuxbvZtWhmsAZp7eO3-31">
          <mxGeometry relative="1" as="geometry" />
        </mxCell>
        <mxCell id="krpuxbvZtWhmsAZp7eO3-25" value="Is the next element null?" style="strokeWidth=2;html=1;shape=mxgraph.flowchart.decision;whiteSpace=wrap;" vertex="1" parent="1">
          <mxGeometry x="350" y="560" width="100" height="100" as="geometry" />
        </mxCell>
        <mxCell id="krpuxbvZtWhmsAZp7eO3-30" value="" style="edgeStyle=orthogonalEdgeStyle;rounded=0;orthogonalLoop=1;jettySize=auto;html=1;" edge="1" parent="1" source="krpuxbvZtWhmsAZp7eO3-27" target="krpuxbvZtWhmsAZp7eO3-19">
          <mxGeometry relative="1" as="geometry" />
        </mxCell>
        <mxCell id="krpuxbvZtWhmsAZp7eO3-27" value="Return count" style="rounded=0;whiteSpace=wrap;html=1;" vertex="1" parent="1">
          <mxGeometry x="530" y="510" width="120" height="60" as="geometry" />
        </mxCell>
        <mxCell id="krpuxbvZtWhmsAZp7eO3-29" value="Yes" style="text;html=1;align=center;verticalAlign=middle;resizable=0;points=[];autosize=1;strokeColor=none;fillColor=none;" vertex="1" parent="1">
          <mxGeometry x="450" y="570" width="40" height="30" as="geometry" />
        </mxCell>
        <mxCell id="krpuxbvZtWhmsAZp7eO3-34" value="" style="edgeStyle=orthogonalEdgeStyle;rounded=0;orthogonalLoop=1;jettySize=auto;html=1;" edge="1" parent="1" source="krpuxbvZtWhmsAZp7eO3-31" target="krpuxbvZtWhmsAZp7eO3-33">
          <mxGeometry relative="1" as="geometry" />
        </mxCell>
        <mxCell id="krpuxbvZtWhmsAZp7eO3-52" value="" style="edgeStyle=orthogonalEdgeStyle;rounded=0;orthogonalLoop=1;jettySize=auto;html=1;exitX=0;exitY=0.5;exitDx=0;exitDy=0;exitPerimeter=0;" edge="1" parent="1" source="krpuxbvZtWhmsAZp7eO3-31" target="krpuxbvZtWhmsAZp7eO3-36">
          <mxGeometry relative="1" as="geometry">
            <Array as="points">
              <mxPoint x="140" y="740" />
            </Array>
          </mxGeometry>
        </mxCell>
        <mxCell id="krpuxbvZtWhmsAZp7eO3-31" value="Is the next element &#39;%&#39;?" style="strokeWidth=2;html=1;shape=mxgraph.flowchart.decision;whiteSpace=wrap;" vertex="1" parent="1">
          <mxGeometry x="350" y="690" width="100" height="100" as="geometry" />
        </mxCell>
        <mxCell id="krpuxbvZtWhmsAZp7eO3-41" value="" style="edgeStyle=orthogonalEdgeStyle;rounded=0;orthogonalLoop=1;jettySize=auto;html=1;" edge="1" parent="1" source="krpuxbvZtWhmsAZp7eO3-33" target="krpuxbvZtWhmsAZp7eO3-38">
          <mxGeometry relative="1" as="geometry" />
        </mxCell>
        <mxCell id="krpuxbvZtWhmsAZp7eO3-33" value="Check the next character" style="rounded=0;whiteSpace=wrap;html=1;" vertex="1" parent="1">
          <mxGeometry x="340" y="830" width="120" height="60" as="geometry" />
        </mxCell>
        <mxCell id="krpuxbvZtWhmsAZp7eO3-35" value="Yes" style="text;html=1;align=center;verticalAlign=middle;resizable=0;points=[];autosize=1;strokeColor=none;fillColor=none;" vertex="1" parent="1">
          <mxGeometry x="360" y="800" width="40" height="30" as="geometry" />
        </mxCell>
        <mxCell id="krpuxbvZtWhmsAZp7eO3-50" value="" style="edgeStyle=orthogonalEdgeStyle;rounded=0;orthogonalLoop=1;jettySize=auto;html=1;" edge="1" parent="1" source="krpuxbvZtWhmsAZp7eO3-36" target="krpuxbvZtWhmsAZp7eO3-49">
          <mxGeometry relative="1" as="geometry" />
        </mxCell>
        <mxCell id="krpuxbvZtWhmsAZp7eO3-54" value="" style="edgeStyle=orthogonalEdgeStyle;rounded=0;orthogonalLoop=1;jettySize=auto;html=1;" edge="1" parent="1" source="krpuxbvZtWhmsAZp7eO3-36">
          <mxGeometry relative="1" as="geometry">
            <mxPoint x="320" y="520" as="targetPoint" />
            <Array as="points">
              <mxPoint x="130" y="520" />
            </Array>
          </mxGeometry>
        </mxCell>
        <mxCell id="krpuxbvZtWhmsAZp7eO3-36" value="Print Character" style="rounded=0;whiteSpace=wrap;html=1;" vertex="1" parent="1">
          <mxGeometry x="65" y="600" width="110" height="50" as="geometry" />
        </mxCell>
        <mxCell id="krpuxbvZtWhmsAZp7eO3-42" value="" style="edgeStyle=orthogonalEdgeStyle;rounded=0;orthogonalLoop=1;jettySize=auto;html=1;" edge="1" parent="1" source="krpuxbvZtWhmsAZp7eO3-38" target="krpuxbvZtWhmsAZp7eO3-39">
          <mxGeometry relative="1" as="geometry" />
        </mxCell>
        <mxCell id="krpuxbvZtWhmsAZp7eO3-46" value="" style="edgeStyle=orthogonalEdgeStyle;rounded=0;orthogonalLoop=1;jettySize=auto;html=1;" edge="1" parent="1" source="krpuxbvZtWhmsAZp7eO3-38" target="krpuxbvZtWhmsAZp7eO3-36">
          <mxGeometry relative="1" as="geometry" />
        </mxCell>
        <mxCell id="krpuxbvZtWhmsAZp7eO3-38" value="Is the next element a format specifier?" style="strokeWidth=2;html=1;shape=mxgraph.flowchart.decision;whiteSpace=wrap;" vertex="1" parent="1">
          <mxGeometry x="65" y="810" width="100" height="100" as="geometry" />
        </mxCell>
        <mxCell id="krpuxbvZtWhmsAZp7eO3-44" value="" style="edgeStyle=orthogonalEdgeStyle;rounded=0;orthogonalLoop=1;jettySize=auto;html=1;" edge="1" parent="1" source="krpuxbvZtWhmsAZp7eO3-39">
          <mxGeometry relative="1" as="geometry">
            <mxPoint x="210" y="985" as="targetPoint" />
          </mxGeometry>
        </mxCell>
        <mxCell id="krpuxbvZtWhmsAZp7eO3-45" value="" style="edgeStyle=orthogonalEdgeStyle;rounded=0;orthogonalLoop=1;jettySize=auto;html=1;" edge="1" parent="1">
          <mxGeometry relative="1" as="geometry">
            <mxPoint x="30" y="982.5" as="sourcePoint" />
            <mxPoint x="320" y="497.5" as="targetPoint" />
            <Array as="points">
              <mxPoint x="20" y="983" />
              <mxPoint x="20" y="498" />
            </Array>
          </mxGeometry>
        </mxCell>
        <mxCell id="krpuxbvZtWhmsAZp7eO3-39" value="Print argument" style="rounded=0;whiteSpace=wrap;html=1;" vertex="1" parent="1">
          <mxGeometry x="50" y="960" width="110" height="50" as="geometry" />
        </mxCell>
        <mxCell id="krpuxbvZtWhmsAZp7eO3-43" value="Yes" style="text;html=1;align=center;verticalAlign=middle;resizable=0;points=[];autosize=1;strokeColor=none;fillColor=none;" vertex="1" parent="1">
          <mxGeometry x="65" y="910" width="40" height="30" as="geometry" />
        </mxCell>
        <mxCell id="krpuxbvZtWhmsAZp7eO3-47" value="No" style="text;html=1;align=center;verticalAlign=middle;resizable=0;points=[];autosize=1;strokeColor=none;fillColor=none;" vertex="1" parent="1">
          <mxGeometry x="65" y="740" width="40" height="30" as="geometry" />
        </mxCell>
        <mxCell id="krpuxbvZtWhmsAZp7eO3-48" value="Increment count &amp;amp; handle edge cases" style="shape=process;whiteSpace=wrap;html=1;backgroundOutline=1;" vertex="1" parent="1">
          <mxGeometry x="200" y="955" width="120" height="60" as="geometry" />
        </mxCell>
        <mxCell id="krpuxbvZtWhmsAZp7eO3-51" value="" style="edgeStyle=orthogonalEdgeStyle;rounded=0;orthogonalLoop=1;jettySize=auto;html=1;" edge="1" parent="1" source="krpuxbvZtWhmsAZp7eO3-49" target="krpuxbvZtWhmsAZp7eO3-36">
          <mxGeometry relative="1" as="geometry" />
        </mxCell>
        <mxCell id="krpuxbvZtWhmsAZp7eO3-49" value="Increment count" style="shape=process;whiteSpace=wrap;html=1;backgroundOutline=1;" vertex="1" parent="1">
          <mxGeometry x="200" y="595" width="120" height="60" as="geometry" />
        </mxCell>
        <mxCell id="krpuxbvZtWhmsAZp7eO3-53" value="No" style="text;html=1;align=center;verticalAlign=middle;resizable=0;points=[];autosize=1;strokeColor=none;fillColor=none;" vertex="1" parent="1">
          <mxGeometry x="230" y="710" width="40" height="30" as="geometry" />
        </mxCell>
        <mxCell id="krpuxbvZtWhmsAZp7eO3-56" value="No" style="text;html=1;align=center;verticalAlign=middle;resizable=0;points=[];autosize=1;strokeColor=none;fillColor=none;" vertex="1" parent="1">
          <mxGeometry x="400" y="658" width="40" height="30" as="geometry" />
        </mxCell>
      </root>
    </mxGraphModel>
  </diagram>
</mxfile>
